<svg width="22" height="22" viewBox="0 0 22 22" fill="none" xmlns="http://www.w3.org/2000/svg">
<path d="M11.6537 15.3204C11.8291 15.1444 11.9168 14.9266 11.9168 14.6668V11.0002C11.9168 10.7404 11.8288 10.5229 11.6528 10.3475C11.4768 10.1721 11.2593 10.0841 11.0002 10.0835C10.7411 10.0829 10.5235 10.1709 10.3475 10.3475C10.1715 10.5241 10.0835 10.7417 10.0835 11.0002V14.6668C10.0835 14.9266 10.1715 15.1444 10.3475 15.3204C10.5235 15.4964 10.7411 15.5841 11.0002 15.5835C11.2593 15.5829 11.4771 15.4958 11.6537 15.3204ZM11.6537 7.98616C11.8291 7.81077 11.9168 7.59322 11.9168 7.3335C11.9168 7.07377 11.8288 6.85622 11.6528 6.68083C11.4768 6.50544 11.2593 6.41744 11.0002 6.41683C10.7411 6.41622 10.5235 6.50422 10.3475 6.68083C10.1715 6.85744 10.0835 7.075 10.0835 7.3335C10.0835 7.592 10.1715 7.80986 10.3475 7.98708C10.5235 8.1643 10.7411 8.252 11.0002 8.25016C11.2593 8.24833 11.4771 8.16033 11.6537 7.98616ZM11.0002 20.1668C9.73211 20.1668 8.54044 19.9261 7.42516 19.4445C6.30989 18.9629 5.33975 18.31 4.51475 17.4856C3.68975 16.6612 3.03678 15.6911 2.55583 14.5752C2.07489 13.4593 1.83411 12.2676 1.8335 11.0002C1.83289 9.73272 2.07366 8.54105 2.55583 7.42516C3.038 6.30927 3.69097 5.33914 4.51475 4.51475C5.33853 3.69036 6.30866 3.03739 7.42516 2.55583C8.54166 2.07427 9.73333 1.8335 11.0002 1.8335C12.267 1.8335 13.4587 2.07427 14.5752 2.55583C15.6917 3.03739 16.6618 3.69036 17.4856 4.51475C18.3094 5.33914 18.9626 6.30927 19.4454 7.42516C19.9282 8.54105 20.1687 9.73272 20.1668 11.0002C20.165 12.2676 19.9242 13.4593 19.4445 14.5752C18.9648 15.6911 18.3118 16.6612 17.4856 17.4856C16.6594 18.31 15.6892 18.9632 14.5752 19.4454C13.4611 19.9276 12.2694 20.1681 11.0002 20.1668Z" fill="#A0A0A0"/>
</svg>
